# xmcd
#
# Track frame offsets:
#	150
#	14932
#	32813
#	51378
#	71452
#	85373
#	102759
#	114941
#	131272
#	144156
#
# Disc length: 2153 seconds
#
# Revision: 0
# Processed by: cddbd v1.5.1PL2 Copyright (c) Steve Scherf et al.
# Submitted via: dBpowerAMP V4.0
#
DISCID=8408670a
DTITLE=National Flower - Farewell Michael Meanwhile
DYEAR=1900
DGENRE=
TTITLE0=Rise and Fall
TTITLE1=Gravity
TTITLE2=Here Comes The Water
TTITLE3=Days Of Greatness
TTITLE4=Don't Forget me
TTITLE5=Hey Geronimo
TTITLE6=Just One Of Those Things
TTITLE7=Weight Of The World
TTITLE8=Red and White and Blue
TTITLE9=Riot
EXTD=
EXTT0=
EXTT1=
EXTT2=
EXTT3=
EXTT4=
EXTT5=
EXTT6=
EXTT7=
EXTT8=
EXTT9=
PLAYORDER=
